<svg width="185" height="51" viewBox="0 0 185 51" fill="none" xmlns="http://www.w3.org/2000/svg">
<path d="M170.413 50.3518C171.637 48.5702 172.703 46.6085 173.501 44.4872C173.904 43.4278 174.248 42.331 174.526 41.2023C174.802 40.0734 175.006 38.9128 175.142 37.7278C175.277 36.5427 175.339 35.3329 175.323 34.106C175.302 32.8797 175.201 31.6372 175.016 30.3874C174.83 29.1378 174.56 27.8808 174.2 26.6281C173.839 25.3754 173.382 24.1304 172.835 22.902C172.288 21.674 171.649 20.464 170.919 19.2869L170.354 18.4107L169.75 17.5516C169.55 17.2609 169.328 16.9883 169.114 16.7062L168.787 16.2857L168.445 15.8765C166.621 13.6788 164.426 11.7068 162.013 10.0287C159.978 8.61518 157.792 7.41675 155.51 6.42956C155.081 6.24389 154.648 6.06563 154.212 5.89489C152.835 5.35291 151.425 4.89409 149.973 4.50091C148.515 4.11544 147.03 3.79376 145.362 3.58742L145.386 4.20575C146.385 4.21438 147.382 4.36087 148.347 4.64164C148.392 4.6542 148.438 4.66708 148.483 4.68023C148.526 4.69226 148.57 4.70483 148.614 4.71746C148.66 4.73018 148.705 4.74318 148.751 4.75644C148.796 4.76894 148.841 4.78164 148.886 4.79475C148.93 4.80685 148.973 4.81921 149.017 4.83198C149.063 4.8447 149.109 4.85781 149.155 4.87113C149.199 4.88358 149.243 4.89606 149.288 4.90891C149.332 4.92125 149.377 4.9339 149.421 4.94683C149.467 4.95937 149.512 4.97243 149.558 4.98571C149.602 4.9979 149.646 5.01034 149.69 5.02313C149.735 5.03569 149.781 5.04852 149.826 5.06173C149.871 5.07441 149.917 5.08716 149.962 5.10043C150.005 5.11236 150.049 5.1248 150.092 5.13719C150.138 5.15015 150.185 5.16338 150.231 5.17694C150.276 5.18926 150.321 5.20202 150.365 5.21501C150.848 5.34887 151.323 5.51627 151.786 5.71664C153.307 6.37447 154.701 7.38757 155.829 8.74145C156.777 9.87947 157.447 11.1494 157.845 12.4688C158.636 12.8556 159.412 13.2747 160.168 13.7268C160.168 13.7273 160.169 13.7278 160.17 13.7282C160.179 13.7334 160.187 13.7387 160.196 13.7439C160.201 13.7468 160.206 13.7497 160.211 13.7527C162.396 15.0658 164.417 16.6448 166.147 18.4569L166.472 18.7941L166.785 19.1429C166.99 19.3773 167.204 19.6024 167.397 19.846L167.985 20.5649L168.541 21.3032C169.264 22.2979 169.914 23.3316 170.489 24.3933C171.063 25.4555 171.565 26.5438 171.984 27.6521C172.402 28.7608 172.744 29.8855 173.012 31.0166C173.279 32.1478 173.473 33.2854 173.595 34.4209C173.712 35.5569 173.757 36.6903 173.735 37.8131C173.712 38.9358 173.625 40.0483 173.468 41.1433C173.308 42.238 173.085 43.3149 172.803 44.368C172.468 45.6364 172.035 46.867 171.525 48.0535C171.186 48.8395 170.814 49.6062 170.413 50.3518Z" fill="url(#paint0_linear_0_127)"/>
<mask id="mask0_0_127" style="mask-type:luminance" maskUnits="userSpaceOnUse" x="146" y="21" width="26" height="30">
<path d="M169.97 50.4736C171.143 46.3515 171.363 42.0591 170.594 38.0596C170.404 37.0602 170.157 36.0795 169.854 35.1247C169.546 34.1712 169.182 33.2445 168.766 32.3517C168.35 31.4591 167.881 30.6006 167.363 29.7833C166.845 28.9663 166.273 28.1946 165.661 27.4692C165.049 26.7441 164.394 26.0671 163.703 25.4425L163.179 24.9839L162.638 24.55C162.462 24.4015 162.269 24.2734 162.086 24.1356L161.81 23.9324L161.525 23.7417C161.507 23.7299 161.49 23.718 161.473 23.7064C161.47 23.7042 161.467 23.7023 161.464 23.7001C161.458 23.6963 161.452 23.6926 161.447 23.6889C161.442 23.6857 161.437 23.6823 161.432 23.6791C161.431 23.6783 161.43 23.6777 161.429 23.6769C161.423 23.6731 161.418 23.6693 161.412 23.6656C161.409 23.6632 161.405 23.661 161.402 23.6587C160.435 23.0107 159.417 22.4642 158.366 22.009C158.366 22.0088 158.365 22.0086 158.365 22.0084C158.365 22.0084 158.364 22.0083 158.364 22.0082C157.821 21.7728 157.268 21.5618 156.709 21.3739C156.702 21.3714 156.695 21.3691 156.688 21.3666C156.659 21.3572 156.631 21.3478 156.603 21.3386C156.048 22.1565 155.367 22.9085 154.563 23.5649C153.863 24.1362 153.111 24.601 152.327 24.9615C153.178 24.9543 154.032 25.0055 154.878 25.121C156.275 25.3145 157.669 25.672 159.021 26.2574C159.094 26.2889 159.167 26.3211 159.239 26.3539L159.509 26.4726L159.772 26.604C159.946 26.6941 160.132 26.7745 160.301 26.8757L160.828 27.1692L161.345 27.4893C162.03 27.931 162.697 28.4312 163.339 28.9892C163.979 29.5474 164.597 30.1616 165.174 30.8332C165.749 31.5052 166.29 32.2304 166.789 33.0034C167.288 33.7762 167.744 34.5966 168.152 35.4583C168.554 36.3209 168.909 37.2236 169.209 38.1594C170.425 41.903 170.716 46.1745 169.97 50.4736ZM146.445 26.0511C146.585 25.9807 146.74 25.9135 146.906 25.8499C146.75 25.8335 146.593 25.8135 146.438 25.79L146.445 26.0511Z" fill="white"/>
</mask>
<g mask="url(#mask0_0_127)">
<path d="M169.969 50.4736C171.143 46.3511 171.362 42.0583 170.593 38.0584C170.404 37.059 170.157 36.0782 169.853 35.1233C169.546 34.1697 169.182 33.2429 168.765 32.3501C168.349 31.4573 167.88 30.5987 167.362 29.7814C166.844 28.9643 166.272 28.1926 165.66 27.467C165.048 26.7419 164.393 26.0648 163.702 25.4401L163.178 24.9815L162.637 24.5475C162.461 24.3991 162.268 24.2709 162.085 24.1332L161.809 23.9299L161.523 23.7392C161.506 23.7274 161.489 23.7155 161.471 23.7038C161.468 23.7017 161.465 23.6998 161.462 23.6976C161.457 23.6938 161.451 23.6901 161.446 23.6864C161.441 23.6832 161.436 23.6798 161.431 23.6765L161.428 23.6743C161.422 23.6706 161.417 23.6668 161.411 23.663C161.408 23.6607 161.404 23.6585 161.401 23.6562C160.434 23.0081 159.416 22.4616 158.364 22.0063L158.363 22.0058C157.82 21.7703 157.266 21.559 156.707 21.3711C156.7 21.3686 156.693 21.3663 156.686 21.3639C156.658 21.3545 156.629 21.3451 156.601 21.3358C156.047 22.1538 155.366 22.9059 154.561 23.5623C153.861 24.1337 153.109 24.5985 152.325 24.9591C153.176 24.9518 154.03 25.0031 154.877 25.1186C156.274 25.3121 157.668 25.6696 159.02 26.2552C159.093 26.2866 159.165 26.3188 159.238 26.3516L159.508 26.4704L159.77 26.6018C159.945 26.6918 160.13 26.7723 160.3 26.8735L160.827 27.167L161.344 27.4872C162.029 27.9289 162.696 28.4292 163.338 28.9872C163.978 29.5455 164.596 30.1597 165.173 30.8314C165.748 31.5034 166.29 32.2287 166.788 33.0017C167.287 33.7746 167.744 34.5951 168.151 35.4569C168.554 36.3195 168.908 37.2224 169.209 38.1582C170.424 41.9022 170.716 46.1741 169.969 50.4736Z" fill="url(#paint1_linear_0_127)"/>
</g>
<path d="M146.094 8.97594C147.451 9.0566 148.716 9.23589 149.966 9.47392C151.212 9.71919 152.435 10.0224 153.634 10.4016C156.031 11.1546 158.344 12.1745 160.49 13.4744C162.633 14.774 164.612 16.3434 166.3 18.1508L166.618 18.4871L166.923 18.8352C167.123 19.0693 167.332 19.2938 167.52 19.5371L168.092 20.2553L168.633 20.9933C169.337 21.9878 169.968 23.0225 170.524 24.0862C171.079 25.1504 171.563 26.2418 171.964 27.3541C172.366 28.4668 172.691 29.5966 172.943 30.7335C173.195 31.8706 173.375 33.0149 173.483 34.1578C173.586 35.3014 173.618 36.443 173.585 37.5748C173.55 38.7065 173.452 39.8285 173.285 40.9336C173.115 42.0385 172.884 43.1262 172.594 44.1906C172.021 46.3215 171.182 48.3498 170.17 50.2466C171.351 46.1054 171.574 41.7938 170.804 37.777C170.615 36.7734 170.367 35.7884 170.063 34.8296C169.755 33.872 169.39 32.9415 168.973 32.045C168.555 31.1487 168.085 30.2867 167.566 29.4661C167.046 28.6458 166.472 27.8711 165.858 27.1428C165.244 26.4149 164.587 25.7353 163.894 25.1084L163.368 24.6482L162.825 24.2126C162.648 24.0636 162.454 23.935 162.271 23.7968L161.994 23.5929L161.707 23.4015C160.194 22.3689 158.551 21.588 156.852 21.019C155.15 20.4517 153.379 20.1082 151.599 19.9632C150.71 19.8882 149.816 19.873 148.937 19.8985C148.06 19.93 147.187 20.0079 146.407 20.146L146.094 8.97594Z" fill="white"/>
<path d="M0.559998 17.3293V15.9442H4.5219V17.3293C4.5219 19.1331 5.52043 20.5504 7.83959 20.5504C10.1588 20.5504 11.1251 19.2297 11.1251 17.1682V0.418738H15.248V17.3937C15.248 21.5489 12.3491 24.3834 7.8718 24.3834C3.04021 24.3834 0.559998 21.3878 0.559998 17.3293Z" fill="#357DE8"/>
<path d="M18.7834 15.9765C18.7834 11.016 22.3588 7.6017 27.287 7.6017C32.2152 7.6017 35.7906 11.016 35.7906 15.9765C35.7906 20.9369 32.2152 24.3512 27.287 24.3512C22.3588 24.3512 18.7834 20.9369 18.7834 15.9765ZM22.7131 15.9765C22.7131 18.8754 24.5813 20.8403 27.287 20.8403C29.9927 20.8403 31.8609 18.8754 31.8609 15.9765C31.8609 13.0775 29.9927 11.1127 27.287 11.1127C24.5813 11.1127 22.7131 13.0775 22.7131 15.9765Z" fill="#357DE8"/>
<path d="M42.5452 23.9647H38.9054V0H42.8351V10.3718C43.8659 8.60023 45.9918 7.53728 48.4076 7.53728C52.9493 7.53728 55.7194 11.0804 55.7194 16.1053C55.7194 21.0013 52.7238 24.3834 48.1499 24.3834C45.7663 24.3834 43.737 23.3205 42.8029 21.4845L42.5452 23.9647ZM42.8673 15.9442C42.8673 18.811 44.6389 20.7758 47.3446 20.7758C50.1147 20.7758 51.7575 18.7788 51.7575 15.9442C51.7575 13.1097 50.1147 11.0804 47.3446 11.0804C44.6389 11.0804 42.8673 13.0775 42.8673 15.9442Z" fill="#357DE8"/>
<path d="M54.6615 4.21959V0.418738H72.5705V4.21959H65.6775V23.9647H61.5545V4.21959H54.6615Z" fill="#357DE8"/>
<path d="M83.2088 7.98823V11.628H81.7594C78.9248 11.628 77.1533 13.1419 77.1533 16.2341V23.9647H73.2236V8.08486H76.9278L77.1533 10.404C77.8297 8.8257 79.3436 7.76275 81.4695 7.76275C82.0171 7.76275 82.5646 7.82717 83.2088 7.98823Z" fill="#357DE8"/>
<path d="M92.4525 24.3834C87.7176 24.3834 84.3999 20.9369 84.3999 16.0087C84.3999 11.016 87.6531 7.56949 92.3237 7.56949C97.0909 7.56949 100.119 10.7583 100.119 15.7188V16.9106L88.1363 16.9428C88.4262 19.7451 89.9079 21.1624 92.517 21.1624C94.6751 21.1624 96.0923 20.3249 96.5433 18.811H100.183C99.5067 22.2897 96.6077 24.3834 92.4525 24.3834ZM92.3559 10.7905C90.0367 10.7905 88.6195 12.0468 88.2329 14.4303H96.2212C96.2212 12.24 94.7073 10.7905 92.3559 10.7905Z" fill="#357DE8"/>
<path d="M107.193 23.9647H103.264V8.05265H106.904L107.226 10.1141C108.224 8.5036 110.157 7.56949 112.315 7.56949C116.309 7.56949 118.37 10.0497 118.37 14.1727V23.9647H114.441V15.1068C114.441 12.4333 113.12 11.1449 111.091 11.1449C108.675 11.1449 107.193 12.8198 107.193 15.3967V23.9647Z" fill="#357DE8"/>
<path d="M128.77 24.3834C124.164 24.3834 121.297 21.0013 121.297 16.0731C121.297 11.1127 124.196 7.56949 128.996 7.56949C131.218 7.56949 133.183 8.5036 134.182 10.0819V0H138.079V23.9647H134.471L134.214 21.4845C133.247 23.3205 131.186 24.3834 128.77 24.3834ZM129.64 20.7758C132.378 20.7758 134.149 18.811 134.149 15.9442C134.149 13.0775 132.378 11.0804 129.64 11.0804C126.902 11.0804 125.227 13.1097 125.227 15.9442C125.227 18.7788 126.902 20.7758 129.64 20.7758Z" fill="#357DE8"/>
<path d="M140.95 19.1331H144.687C144.719 20.5181 145.75 21.3878 147.554 21.3878C149.39 21.3878 150.388 20.647 150.388 19.4874C150.388 18.6821 149.969 18.1024 148.552 17.7802L145.685 17.1038C142.819 16.4596 141.434 15.1068 141.434 12.5621C141.434 9.4377 144.075 7.56949 147.747 7.56949C151.322 7.56949 153.738 9.63097 153.77 12.7232H150.034C150.002 11.3703 149.1 10.5007 147.586 10.5007C146.04 10.5007 145.138 11.2093 145.138 12.4011C145.138 13.303 145.846 13.8828 147.199 14.2049L150.066 14.8813C152.739 15.4933 154.092 16.7173 154.092 19.1653C154.092 22.3864 151.354 24.3834 147.425 24.3834C143.463 24.3834 140.95 22.2575 140.95 19.1331Z" fill="#357DE8"/>
<path d="M82.3959 38.4607V49.2731H80.9303V38.4607H82.3959Z" fill="#939393"/>
<path d="M95.3558 49.2731H93.8903V38.4607H95.3558L100.889 46.8205V38.4607H102.355V49.2731H100.889L95.3558 40.9133V49.2731Z" fill="#939393"/>
<path d="M117.42 49.2731H113.846V38.4607H117.36C120.59 38.4607 122.774 40.6441 122.774 43.8744C122.774 47.0897 120.62 49.2731 117.42 49.2731ZM117.255 39.8066H115.311V47.9122H117.315C119.723 47.9122 121.248 46.3569 121.248 43.8744C121.248 41.3619 119.723 39.8066 117.255 39.8066Z" fill="#939393"/>
<path d="M135.077 38.4607V49.2731H133.611V38.4607H135.077Z" fill="#939393"/>
<path d="M147.02 49.2731H145.495L149.443 38.4607H151.073L155.036 49.2731H153.495L152.523 46.5812H147.977L147.02 49.2731ZM150.071 40.7937L148.426 45.31H152.09L150.43 40.7937C150.355 40.5843 150.28 40.3301 150.25 40.1656C150.22 40.3151 150.145 40.5693 150.071 40.7937Z" fill="#939393"/>
<defs>
<linearGradient id="paint0_linear_0_127" x1="177.713" y1="34.7716" x2="139.094" y2="18.1501" gradientUnits="userSpaceOnUse">
<stop stop-color="#F9A726"/>
<stop offset="0.35641" stop-color="#F68615"/>
<stop offset="1" stop-color="#F14621"/>
</linearGradient>
<linearGradient id="paint1_linear_0_127" x1="174.219" y1="40.592" x2="143.347" y2="27.3169" gradientUnits="userSpaceOnUse">
<stop stop-color="#D0ECA6"/>
<stop offset="0.35641" stop-color="#7FCC2A"/>
<stop offset="1" stop-color="#41B93C"/>
</linearGradient>
</defs>
</svg>
