<svg width="124" height="121" viewBox="0 0 124 121" fill="none" xmlns="http://www.w3.org/2000/svg">
<path fill-rule="evenodd" clip-rule="evenodd" d="M81.2797 107.236C84.463 106.055 89.431 103.461 93.0259 101.103C97.3269 98.2816 103.236 92.9009 106.179 89.1261C111.465 82.3464 114.23 75.4506 115.819 65.0852C116.888 58.1151 116.964 56.3454 117.063 36.1145C117.167 14.5984 117.263 15.9489 115.516 14.2442C113.83 12.5989 114.827 12.6729 94.2928 12.6729C74.4599 12.6729 75.1542 12.6334 73.5157 13.853C73.0972 14.1644 72.4934 14.8534 72.1735 15.384L71.5922 16.3491L71.5339 34.6808L71.4753 53.0125L71.9405 54.0677C72.4867 55.3064 73.9857 56.687 75.1178 56.9939C75.5819 57.1195 79.4496 57.2057 84.6703 57.2063L93.4429 57.2076L93.4429 58.5285C93.4429 61.536 92.5641 66.6401 91.4641 70.0218C90.0017 74.5177 87.7703 78.1427 84.5381 81.2733C81.9012 83.8276 78.8477 85.856 74.5553 87.9054C71.4165 89.4039 70.9457 89.7757 70.0833 91.4375C69.8549 91.8776 69.7027 92.662 69.6952 93.4374C69.6844 94.5598 69.8278 95.0156 70.888 97.23C74.9228 105.656 75.2528 106.191 76.9382 107.03C78.1741 107.645 79.9488 107.729 81.2797 107.236ZM17.6195 107.39C18.8125 107.175 24.4225 104.496 27.4603 102.691C36.6763 97.2134 43.8702 89.8755 48.08 81.6582C51.1583 75.6496 52.6831 69.5798 53.7569 59.0583C54.0423 56.2623 54.1241 52.0817 54.2012 36.3263C54.3078 14.574 54.4042 15.9514 52.6547 14.2442C50.9688 12.5991 51.9649 12.6729 31.4429 12.6729C11.4399 12.6728 12.1411 12.6304 10.5145 13.9387C10.0878 14.282 9.4878 15.0542 9.18103 15.6548L8.62346 16.7467L8.62818 34.9289C8.63292 52.7667 8.64132 53.1291 9.07145 54.0565C9.57541 55.1432 10.3442 55.9896 11.4221 56.6446C12.1581 57.092 12.3893 57.105 21.4295 57.2076L30.6834 57.3126L30.6177 58.9932C30.4479 63.3338 29.3741 68.4996 27.8826 72.149C26.3492 75.9012 24.5127 78.6382 21.7257 81.3246C19.1893 83.7694 16.5997 85.5115 12.5348 87.5071C8.63809 89.4202 7.54899 90.3019 7.10788 91.9001C6.58584 93.7918 6.86076 94.7449 9.4301 99.9567C10.8641 102.865 12.1366 105.155 12.6274 105.711C13.8743 107.122 15.699 107.736 17.6195 107.39Z" fill="#BF0000" fill-opacity="0.1"/>
</svg>
