<svg width="124" height="121" viewBox="0 0 124 121" fill="none" xmlns="http://www.w3.org/2000/svg">
<path fill-rule="evenodd" clip-rule="evenodd" d="M81.2797 107.236C84.463 106.055 89.431 103.461 93.0259 101.103C97.3269 98.2817 103.236 92.901 106.179 89.1263C111.465 82.3465 114.23 75.4508 115.819 65.0853C116.888 58.1152 116.964 56.3456 117.063 36.1146C117.167 14.5985 117.263 15.949 115.516 14.2443C113.83 12.599 114.827 12.673 94.2928 12.673C74.4599 12.673 75.1542 12.6335 73.5157 13.8532C73.0972 14.1645 72.4933 14.8535 72.1734 15.3841L71.5922 16.3492L71.5338 34.6809L71.4753 53.0126L71.9405 54.0678C72.4867 55.3066 73.9856 56.6871 75.1178 56.994C75.5819 57.1197 79.4496 57.2058 84.6703 57.2064L93.4429 57.2077L93.4429 58.5286C93.4429 61.5362 92.5641 66.6402 91.464 70.0219C90.0017 74.5178 87.7703 78.1428 84.5381 81.2735C81.9012 83.8277 78.8477 85.8561 74.5553 87.9056C71.4165 89.404 70.9457 89.7758 70.0833 91.4377C69.8549 91.8778 69.7027 92.6622 69.6951 93.4375C69.6844 94.5599 69.8278 95.0158 70.888 97.2301C74.9227 105.656 75.2528 106.191 76.9382 107.03C78.1741 107.645 79.9488 107.729 81.2797 107.236ZM17.6194 107.39C18.8125 107.175 24.4224 104.496 27.4602 102.691C36.6763 97.2135 43.8702 89.8756 48.08 81.6583C51.1582 75.6497 52.683 69.5799 53.7568 59.0584C54.0423 56.2624 54.1241 52.0818 54.2012 36.3264C54.3077 14.5741 54.4042 15.9515 52.6546 14.2443C50.9688 12.5992 51.9649 12.673 31.4429 12.673C11.4399 12.673 12.1411 12.6305 10.5144 13.9388C10.0877 14.2821 9.48777 15.0543 9.181 15.6549L8.62343 16.7468L8.62816 34.929C8.63289 52.7668 8.64129 53.1292 9.07142 54.0566C9.57538 55.1433 10.3441 55.9897 11.422 56.6447C12.1581 57.0922 12.3893 57.1052 21.4294 57.2077L30.6834 57.3127L30.6177 58.9933C30.4479 63.3339 29.374 68.4998 27.8826 72.1491C26.3492 75.9013 24.5127 78.6383 21.7257 81.3247C19.1893 83.7695 16.5997 85.5116 12.5348 87.5073C8.63806 89.4204 7.54897 90.302 7.10786 91.9002C6.58581 93.7919 6.86073 94.745 9.43007 99.9568C10.864 102.865 12.1365 105.156 12.6274 105.711C13.8743 107.122 15.699 107.736 17.6194 107.39Z" fill="#1934BD" fill-opacity="0.15"/>
</svg>
