<svg width="80" height="80" viewBox="0 0 80 80" fill="none" xmlns="http://www.w3.org/2000/svg">
<rect width="80" height="80" fill="#ECECEC"/>
<path d="M62.3601 49.7857L52.0171 40.7059C52.0462 40.2089 52.0389 40.3047 52.0389 36.5365C56.1692 33.9626 57.3112 30.6458 57.3604 30.4984C57.6506 29.6242 57.0014 28.7187 56.0819 28.7187H51.6865L48.3854 17.955C48.1408 17.1576 47.241 16.7705 46.4966 17.1421L39.8857 20.4464L33.3267 17.1442C32.5817 16.7691 31.679 17.1565 31.4344 17.955L28.1333 28.7187H23.738C22.8192 28.7187 22.1689 29.6231 22.4595 30.4984C22.5082 30.6458 23.6506 33.9626 27.781 36.5365C27.781 40.317 27.7739 40.2114 27.8027 40.7059L17.4598 49.7857C16.8151 50.3515 16.8547 51.3699 17.5387 51.8848L23.9966 56.7441L20.0895 60.6639C19.5634 61.1921 19.5634 62.048 20.0895 62.5762C20.6159 63.1041 21.4691 63.1041 21.9955 62.5762L26.1747 58.383L28.32 59.9974C28.9152 60.4456 29.76 60.3245 30.2068 59.7272C30.6532 59.1295 30.5324 58.2823 29.9372 57.8341L20.486 50.7221L28.3871 43.7858C29.1048 45.9712 30.4236 47.8846 32.1465 49.3284L38.6921 62.2614C39.1901 63.2448 40.5964 63.2476 41.0954 62.2614L47.6176 49.3755C49.3678 47.9264 50.7074 45.9947 51.4328 43.7858L59.3338 50.7221L49.8826 57.8341C49.287 58.2823 49.1663 59.1295 49.6131 59.7272C50.0595 60.3242 50.9042 60.4456 51.4998 59.9974L53.6452 58.383L57.8243 62.5762C58.3504 63.1041 59.2039 63.1041 59.73 62.5762C60.2564 62.048 60.2564 61.1921 59.73 60.6639L55.8232 56.7441L62.2811 51.8848C62.9662 51.3692 63.0037 50.3508 62.3601 49.7857ZM33.5419 20.2779L39.2789 23.1666C39.6579 23.3575 40.1047 23.3582 40.4841 23.1684L46.2766 20.2733L48.8666 28.7187H30.9532L33.5419 20.2779ZM26.0525 31.4228H53.7673C53.083 32.3247 51.9968 33.4309 50.3329 34.4112H29.4866C27.8227 33.4309 26.7369 32.3247 26.0525 31.4228ZM39.8938 58.6631L36.3256 51.6128C38.6353 52.3308 41.134 52.3379 43.4567 51.624L39.8938 58.6631ZM49.3435 39.9864C49.3435 45.2051 45.1114 49.4509 39.9099 49.4509C34.7081 49.4509 30.4763 45.2051 30.4763 39.9864V37.1153H49.3435V39.9864Z" fill="#939393"/>
</svg>
