<?xml version="1.0" encoding="UTF-8"?>
<svg width="67px" height="40px" viewBox="0 0 67 40" version="1.1" xmlns="http://www.w3.org/2000/svg" xmlns:xlink="http://www.w3.org/1999/xlink">
    <title>logo-blue</title>
    <g id="employer" stroke="none" stroke-width="1" fill="none" fill-rule="evenodd">
        <g id="icons" transform="translate(-145.000000, -291.000000)" fill="#409AFD">
            <path d="M180.487516,294.268412 C167.418834,296.368294 159.983421,297.679857 159.289049,298.008162 C158.49445,298.383683 156.636221,300.390789 152.07047,305.805199 C148.688566,309.815821 145.763654,313.394594 145.570418,313.758519 C144.471806,315.829408 144.997374,318.558564 146.826173,320.277678 C147.796516,321.189974 160.501492,329.187749 162.969136,330.439671 C163.642962,330.781505 164.611362,331.003505 165.414568,330.999958 C166.146143,330.996602 176.01866,329.518815 187.353495,327.715761 C205.819452,324.778687 208.092471,324.362024 209.21024,323.710661 C210.567888,322.919305 211.707313,321.271429 211.993558,319.684852 C212.163749,318.741355 208.911224,297.356798 208.242673,295.024149 C207.866196,293.7101 206.244237,291.89324 204.977932,291.366958 C204.45042,291.147996 203.253247,290.983153 202.317608,291.001377 C201.381969,291.019325 191.558317,292.48938 180.487516,294.268412 M197.319853,302.694723 C195.850317,303.215759 194.380781,304.453046 193.713895,305.730647 C191.880654,309.24398 193.826616,313.601959 197.671342,314.593777 C203.844337,316.186429 208.145777,308.623541 203.573086,304.216965 C201.683206,302.395963 199.596204,301.887904 197.319853,302.694723 M185.181535,304.864739 C183.422423,305.788356 182.356295,307.416903 182.211923,309.401091 C182.148344,310.276663 182.240797,311.52748 182.417653,312.180225 C182.863816,313.827824 184.952762,315.939579 186.557507,316.364802 C190.45554,317.397209 193.766646,314.188987 192.330149,310.771192 C191.717958,309.314666 191.266797,309.095428 189.443828,309.368233 C187.956246,309.590785 187.850466,309.655672 187.922929,310.297372 C188.109224,311.943315 188.263035,312.22965 188.960739,312.22965 C189.731739,312.22965 189.884439,312.633335 189.210335,312.890402 C187.774393,313.438497 186.171313,312.514052 185.880072,310.970549 C185.519976,309.061189 186.829592,307.535634 188.828861,307.535634 L189.701754,307.535634 L189.505186,306.086011 C189.396908,305.288581 189.252814,304.543061 189.18507,304.4293 C188.906322,303.962107 186.377043,304.237121 185.181535,304.864739 M198.062534,306.158354 C197.186587,306.509025 196.504986,307.962237 196.70905,309.043794 C197.164376,311.457622 200.368314,312.099046 201.462207,309.995574 C202.700748,307.613776 200.534342,305.168469 198.062534,306.158354 M173.146221,306.551271 C171.660304,307.09909 170.786301,307.783865 169.798466,309.174122 C169.046346,310.23276 168.965554,310.553886 168.965554,312.482022 C168.965554,314.351069 169.061061,314.761105 169.731556,315.76811 C172.445186,319.845553 178.366364,319.581031 180.556925,315.284626 C181.064724,314.289218 181.318485,313.364497 181.314371,312.525373 C181.307657,311.137877 180.513336,309.138778 179.56798,308.130117 C178.071513,306.533323 175.145767,305.814035 173.146221,306.551271 M163.903942,308.347423 C163.257601,308.452072 162.659292,308.60725 162.57378,308.692295 C162.373603,308.891376 163.771231,317.12827 164.113003,317.763342 C164.255431,318.02814 164.759343,318.56878 165.232438,318.964734 C165.920979,319.540994 166.384634,319.684852 167.552378,319.684852 C168.355028,319.684852 169.073832,319.623277 169.14935,319.547897 C169.225145,319.472793 169.166286,318.665146 169.018582,317.753126 C168.780647,316.283899 168.677366,316.09531 168.110707,316.09531 C167.75894,316.09531 167.40051,315.981273 167.313887,315.842109 C167.227264,315.702669 166.887713,313.900996 166.55899,311.83839 C166.075623,308.804399 165.877112,308.094498 165.52007,308.122386 C165.277415,308.141438 164.550005,308.242774 163.903942,308.347423 M173.247559,310.551677 C171.287715,312.500798 173.256721,315.860609 175.858463,315.006575 C176.809927,314.694284 177.711139,313.496758 177.711139,312.545253 C177.711139,311.599823 177.090341,310.553334 176.282694,310.138052 C175.092183,309.525621 174.150159,309.654016 173.247559,310.551677 M149.093084,314.693456 C147.981145,315.799311 148.094422,317.253904 149.367945,318.226393 C150.703382,319.246099 153.001389,318.067349 153.001389,316.362869 C153.001389,315.263365 151.689274,313.886361 150.641469,313.886361 C150.197249,313.886361 149.582282,314.206935 149.093084,314.693456" id="logo-blue"></path>
        </g>
    </g>
</svg>