<svg width="80" height="80" viewBox="0 0 80 80" fill="none" xmlns="http://www.w3.org/2000/svg">
<rect width="80" height="80" rx="10" fill="#E6ECFF"/>
<path d="M32.3125 39.3813C34.4687 40.9563 37.1313 41.875 40 41.875C47.0163 41.875 53.125 35.8019 53.125 28.75C53.125 21.5125 47.2375 15.625 40 15.625C32.7625 15.625 26.875 21.5125 26.875 28.75C26.875 33.1187 29.0125 37 32.3125 39.3813Z" fill="#4294FF"/>
<path d="M51.55 41.0312C48.5312 43.8812 44.4625 45.625 40 45.625C35.5375 45.625 31.4688 43.8812 28.45 41.0312C20.8187 45.1563 15.625 53.2375 15.625 62.5C15.625 63.5313 16.4687 64.375 17.5 64.375H62.5C63.5313 64.375 64.375 63.5313 64.375 62.5C64.375 53.2375 59.1813 45.1563 51.55 41.0312Z" fill="#4294FF"/>
</svg>
